<?xml version="1.0" encoding="utf-8"?>
<svg version="1.1" xmlns:xlink="http://www.w3.org/1999/xlink" width="24px" height="24px" xmlns="http://www.w3.org/2000/svg">
  <g>
    <path d="M 6 16  L 6 22  L 18 22  L 18 16  L 6 16  Z M 20 15.499999999999998  L 20 22  L 22 22  L 22 8  C 22 7.854166666666663  21.947916666666668 7.653645833333333  21.84375 7.398437499999999  C 21.739583333333336 7.143229166666665  21.635416666666668 6.963541666666663  21.53125 6.859374999999999  L 17.140625 2.468750000000001  C 17.036458333333336 2.3645833333333313  16.859375 2.2604166666666643  16.609375 2.15625  C 16.359375 2.052083333333333  16.15625 2.000000000000001  16 2.000000000000001  L 16 8.5  C 16 8.916666666666668  15.854166666666668 9.270833333333332  15.5625 9.5625  C 15.270833333333332 9.854166666666668  14.916666666666668 10  14.5 10  L 5.5 10  C 5.083333333333334 10  4.729166666666667 9.854166666666668  4.4375 9.5625  C 4.145833333333334 9.270833333333332  4 8.916666666666668  4 8.5  L 4 2.000000000000001  L 2 2.000000000000001  L 2 22  L 4 22  L 4 15.499999999999998  C 4 15.08333333333333  4.145833333333334 14.729166666666664  4.4375 14.4375  C 4.729166666666667 14.14583333333333  5.083333333333334 13.999999999999998  5.5 14  L 18.5 14  C 18.916666666666668 13.999999999999998  19.270833333333336 14.14583333333333  19.5625 14.4375  C 19.854166666666668 14.729166666666664  20 15.08333333333333  20 15.499999999999998  Z M 13.8515625 7.8515625  C 13.950520833333336 7.752604166666665  14 7.635416666666665  14 7.5  L 14 2.499999999999999  C 14 2.3645833333333313  13.950520833333336 2.2473958333333313  13.8515625 2.148437499999999  C 13.752604166666668 2.0494791666666643  13.635416666666668 2.000000000000001  13.5 2.000000000000001  L 10.5 2.000000000000001  C 10.364583333333334 2.000000000000001  10.247395833333334 2.0494791666666643  10.1484375 2.148437499999999  C 10.049479166666668 2.2473958333333313  10 2.3645833333333313  10 2.499999999999999  L 10 7.5  C 10 7.635416666666665  10.049479166666668 7.752604166666665  10.1484375 7.8515625  C 10.247395833333334 7.950520833333332  10.364583333333334 8  10.5 8  L 13.5 8  C 13.635416666666668 8  13.752604166666668 7.950520833333332  13.8515625 7.8515625  Z M 23.6875 6.624999999999999  C 23.895833333333332 7.125  24 7.583333333333333  24 8  L 24 22.5  C 24 22.916666666666668  23.854166666666664 23.270833333333332  23.5625 23.5625  C 23.270833333333336 23.854166666666668  22.916666666666668 24  22.5 24  L 1.5 24  C 1.0833333333333335 24  0.7291666666666667 23.854166666666668  0.4375 23.5625  C 0.14583333333333331 23.270833333333332  0 22.916666666666668  0 22.5  L 0 1.5  C 0 1.0833333333333321  0.14583333333333331 0.7291666666666634  0.4375 0.4374999999999991  C 0.7291666666666667 0.14583333333333215  1.0833333333333335 0  1.5 0  L 16 0  C 16.416666666666668 0  16.875 0.1041666666666643  17.375 0.3125000000000009  C 17.875 0.5208333333333321  18.270833333333336 0.7708333333333313  18.5625 1.0625000000000009  L 22.9375 5.4375  C 23.229166666666668 5.729166666666664  23.479166666666668 6.125000000000001  23.6875 6.624999999999999  Z " fill-rule="nonzero" fill="#ffffff" stroke="none" />
  </g>
</svg>